<svg xmlns="http://www.w3.org/2000/svg"  viewBox="0 0 40 40" width="30px" height="30px"><path fill="#fff" d="M5.5 1.5H34.5V38.5H5.5z"/><path fill="#788b9c" d="M34,2v36H6V2H34 M35,1H5v38h30V1L35,1z"/><path fill="none" stroke="#c5d4de" stroke-miterlimit="10" d="M23 11.5L29 11.5M23 15.5L29 15.5M23 19.5L29 19.5M11 23.5L29 23.5M11 27.5L29 27.5M11 31.5L29 31.5"/><path fill="#ffeea3" d="M16 8.5A2.5 2.5 0 1 0 16 13.5A2.5 2.5 0 1 0 16 8.5Z"/><path fill="#ba9b48" d="M16,9c1.103,0,2,0.897,2,2s-0.897,2-2,2s-2-0.897-2-2S14.897,9,16,9 M16,8c-1.657,0-3,1.343-3,3 s1.343,3,3,3s3-1.343,3-3S17.657,8,16,8L16,8z"/><g><path fill="#c2e8ff" d="M11.528,19.5c0.25-2.247,2.16-4,4.472-4s4.223,1.753,4.472,4H11.528z"/><path fill="#7496c4" d="M16,16c1.86,0,3.428,1.277,3.873,3h-7.747C12.572,17.277,14.14,16,16,16 M16,15 c-2.761,0-5,2.239-5,5h10C21,17.239,18.761,15,16,15L16,15z"/></g></svg>